<?xml version="1.0" encoding="utf-8"?>
<!-- Generator: Adobe Illustrator 24.3.2, SVG Export Plug-In . SVG Version: 6.00 Build 0)  -->
<svg version="1.1" id="Layer_1" xmlns="http://www.w3.org/2000/svg" xmlns:xlink="http://www.w3.org/1999/xlink" x="0px" y="0px"
	 viewBox="0 0 800 1104" style="enable-background:new 0 0 800 1104;" xml:space="preserve">
<style type="text/css">
	.st0{fill:#231815;}
	.st1{font-family:'Roboto-Regular';}
	.st2{font-size:26px;}
	.st3{font-family:'Roboto-Bold';}
	.st4{fill:none;stroke:#231815;stroke-miterlimit:10;}
	.st5{fill:none;}
</style>
<g>
	
		<image style="overflow:visible;" width="2223" height="3098" xlink:href="EF4F56782BB918D7.png"  transform="matrix(0.36 0 0 0.36 0.1933 0.1492)">
	</image>
	<text transform="matrix(1 0 0 1 243.4956 231.8828)" class="st0 st1 st2">Nasal cavity</text>
	<text transform="matrix(1 0 0 1 625.1426 342.3945)" class="st0 st1 st2">Hard palete</text>
	<text transform="matrix(1 0 0 1 69.0434 496.8103)" class="st0 st1 st2">Soft palete</text>
	<text transform="matrix(1 0 0 1 640.0293 489.9871)" class="st0 st1 st2">Teeth</text>
	<text transform="matrix(1 0 0 1 579.4258 531.4751)" class="st0 st1 st2">Lips</text>
	<text transform="matrix(1 0 0 1 630.6816 651.248)" class="st0 st3 st2">Vocal folds</text>
	<text transform="matrix(1 0 0 1 35.8071 738.1501)"><tspan x="0" y="0" class="st0 st1 st2">Esophagus </tspan><tspan x="0" y="32.7" class="st0 st1 st2">(food channel)</tspan></text>
	<text transform="matrix(1 0 0 1 462.6758 754.134)" class="st0 st1 st2">Larynx (voice box)</text>
	<text transform="matrix(1 0 0 1 437.0703 836.4893)"><tspan x="0" y="0" class="st0 st3 st2">Trachea</tspan><tspan x="0" y="32.7" class="st0 st3 st2">(windpipe)</tspan></text>
	<text transform="matrix(1 0 0 1 610.8906 580.2517)" class="st0 st3 st2">Tongue</text>
	<g>
		<g>
			<line class="st4" x1="366.6" y1="243.3" x2="366.6" y2="363.4"/>
			<g>
				<circle class="st0" cx="366.6" cy="363.4" r="3.8"/>
			</g>
		</g>
	</g>
	<g>
		<g>
			<line class="st4" x1="203.5" y1="489.1" x2="326" y2="489.1"/>
			<g>
				<path class="st0" d="M326,492.8c2.1,0,3.8-1.7,3.8-3.8s-1.7-3.8-3.8-3.8c-2.1,0-3.8,1.7-3.8,3.8S323.9,492.8,326,492.8z"/>
			</g>
		</g>
	</g>
	<g>
		<g>
			<polyline class="st4" points="607.4,333.4 540.8,333.4 435.5,438.7 			"/>
			<g>
				<path class="st0" d="M432.9,436.1c-1.5,1.5-1.5,3.8,0,5.3s3.8,1.5,5.3,0s1.5-3.8,0-5.3S434.3,434.6,432.9,436.1z"/>
			</g>
		</g>
	</g>
	<g>
		<g>
			<polyline class="st4" points="631.4,476.6 519.2,476.6 500.8,494.9 			"/>
			<g>
				<circle class="st0" cx="500.8" cy="494.9" r="3.8"/>
			</g>
		</g>
	</g>
	<g>
		<g>
			<line class="st4" x1="175.1" y1="731" x2="249" y2="731"/>
			<g>
				<path class="st0" d="M249,734.8c2.1,0,3.8-1.7,3.8-3.8s-1.7-3.8-3.8-3.8c-2.1,0-3.8,1.7-3.8,3.8S246.9,734.8,249,734.8z"/>
			</g>
		</g>
	</g>
	<g>
		<g>
			<line class="st4" x1="421.6" y1="821.5" x2="327.4" y2="821.5"/>
			<g>
				<path class="st0" d="M327.4,817.8c-2.1,0-3.8,1.7-3.8,3.8s1.7,3.8,3.8,3.8s3.8-1.7,3.8-3.8S329.4,817.8,327.4,817.8z"/>
			</g>
		</g>
	</g>
	<g>
		<g>
			<polyline class="st4" points="615.9,639.3 382.4,639.3 349,672.6 			"/>
			<g>
				
					<ellipse transform="matrix(0.1544 -0.988 0.988 0.1544 -369.4402 913.6275)" class="st0" cx="349" cy="672.6" rx="3.8" ry="3.8"/>
			</g>
		</g>
	</g>
	<g>
		<path class="st5" d="M418.9,580.9"/>
	</g>
	<g>
		<g>
			<line class="st4" x1="596" y1="570.8" x2="432.7" y2="570.8"/>
			<g>
				<circle class="st0" cx="432.7" cy="570.8" r="3.8"/>
			</g>
		</g>
	</g>
	<polyline class="st4" points="354,804.6 394.9,804.6 422.8,675.8 381.9,675.8 	"/>
	<line class="st4" x1="410" y1="742.6" x2="449.5" y2="742.6"/>
</g>
</svg>
