<?xml version="1.0" encoding="utf-8"?>
<!-- Generator: Adobe Illustrator 24.3.2, SVG Export Plug-In . SVG Version: 6.00 Build 0)  -->
<svg version="1.1" id="Layer_1" xmlns="http://www.w3.org/2000/svg" xmlns:xlink="http://www.w3.org/1999/xlink" x="0px" y="0px"
	 viewBox="0 0 800 1000" style="enable-background:new 0 0 800 1000;" xml:space="preserve">
<style type="text/css">
	@import url('https://fonts.googleapis.com/css?family=Roboto:300,400,700');
	.st0{fill:#231815;}
	.st1{font-family:'Roboto';font-weight: 700;}
	.st2{font-size:27px;}
	.st3{fill:none;stroke:#FFFFFF;stroke-width:2;stroke-miterlimit:10;}
	.st4{font-family:'Roboto';font-weight: 400;}
	.st5{font-size:27.6728px;}
	.st6{fill:none;}
	.st7{font-family:'Roboto';font-weight: 300;}
	.st8{font-size:28.1854px;}
	.st9{fill:none;stroke:#231815;stroke-width:2;stroke-miterlimit:10;}
</style>
<image style="overflow:visible;" width="292" height="943" xlink:href="anim-dantian-khoomei.gif"  transform="matrix(1 0 0 1 40 24)">
</image>

<g>
	<text transform="matrix(1 0 0 1 93.138 474.5654)" class="st3 st4 st5">Dan Tian</text>
</g>
<g>
	<text transform="matrix(1 0 0 1 78.0365 319.8682)" class="st3 st4 st5">Lungs</text>
</g>
<g>
	<text transform="matrix(1 0 0 1 95.6693 209.459)" class="st3 st4 st5">Trachea</text>
</g>
<g>
	<text transform="matrix(1 0 0 1 93.138 474.5654)" class="st0 st4 st5">Dan Tian</text>
</g>
<g>
	<text transform="matrix(1 0 0 1 78.0365 319.8682)" class="st0 st4 st5">Lungs</text>
</g>
<g>
	<text transform="matrix(1 0 0 1 95.6693 209.459)" class="st0 st4 st5">Trachea</text>
</g>
<g>
	<rect x="376.3" y="236.7" class="st6" width="307.3" height="177.7"/>
	<text transform="matrix(1 0 0 1 376.3333 257.8545)"><tspan x="0" y="0" class="st0 st7 st8">Dan Tian (stomach </tspan><tspan x="0" y="33.8" class="st0 st7 st8">area) is the reserve of Qi </tspan><tspan x="0" y="67.6" class="st0 st7 st8">and also the force to </tspan><tspan x="0" y="101.5" class="st0 st7 st8">push air from the lungs </tspan><tspan x="0" y="135.3" class="st0 st7 st8">outward.</tspan></text>
</g>

<g>
	<g>
		<polyline class="st9" points="442.3,420.4 442.3,481.4 234.3,481.4 		"/>
		<g>
			<path class="st0" d="M234.3,473.9c-4.2,0-7.5,3.4-7.5,7.5s3.4,7.5,7.5,7.5c4.2,0,7.5-3.4,7.5-7.5S238.5,473.9,234.3,473.9z"/>
		</g>
	</g>
</g>
</svg>
