<?xml version="1.0" encoding="utf-8"?>
<!-- Generator: Adobe Illustrator 24.3.2, SVG Export Plug-In . SVG Version: 6.00 Build 0)  -->
<svg version="1.1" id="Layer_1" xmlns="http://www.w3.org/2000/svg" xmlns:xlink="http://www.w3.org/1999/xlink" x="0px" y="0px"
	 viewBox="0 0 800 834" style="enable-background:new 0 0 800 834;" xml:space="preserve">
<style type="text/css">
	.st0{fill:none;stroke:#231815;stroke-miterlimit:10;}
	.st1{fill:#231815;}
	.st2{font-family:'Roboto-Bold';}
	.st3{font-size:24px;}
	.st4{fill:#FFFFFF;}
	.st5{font-family:'BentonSansCond-Bold';}
	.st6{font-size:26px;}
	.st7{fill:none;}
	.st8{font-family:'Roboto-Regular';}
</style>
<path class="st0" d="M545.6,491.6c0,0,2.3,60.5-50,92"/>
<g>
	<text transform="matrix(1 0 0 1 430.6016 243.7148)" class="st1 st2 st3">Two strings</text>
</g>
<g>
	<text transform="matrix(1 0 0 1 402.4336 728.7168)" class="st4 st5 st6">Body</text>
</g>
<rect x="433" y="257.2" class="st7" width="252" height="103.8"/>
<text transform="matrix(1 0 0 1 432.9707 275.2314)"><tspan x="0" y="0" class="st1 st8 st3">Each string has around </tspan><tspan x="0" y="27.4" class="st1 st8 st3">200 horse hairs.</tspan></text>
<line class="st0" x1="413.7" y1="233.2" x2="372.4" y2="233.2"/>
<path class="st0" d="M268.1,295.6c0,0,0,49.5,44.7,70.3"/>
<image style="overflow:visible;" width="378" height="834" xlink:href="F540B9D0CDBDECE2.png"  transform="matrix(1 0 0 1 220 0)">
</image>
<g>
	<text transform="matrix(1 0 0 1 159.1191 51.5977)" class="st1 st2 st3">Horse head</text>
</g>
<g>
	<text transform="matrix(1 0 0 1 391.4746 115.4473)" class="st1 st2 st3">Tunning peg</text>
</g>
<g>
	<text transform="matrix(1 0 0 1 477.7637 480.2402)" class="st1 st2 st3">Sound hole</text>
</g>
<g>
	<text transform="matrix(1 0 0 1 192.5703 437.8516)"><tspan x="0" y="0" class="st1 st2 st3">Horse</tspan><tspan x="23.2" y="26" class="st1 st2 st3">hair</tspan></text>
</g>
<g>
	<text transform="matrix(1 0 0 1 179.0508 283.4824)" class="st1 st2 st3">Bow string</text>
</g>
<path class="st0" d="M239.5,480.5c0,3,11,59,86,74"/>
</svg>
