<?xml version="1.0" encoding="utf-8"?>
<!-- Generator: Adobe Illustrator 24.3.2, SVG Export Plug-In . SVG Version: 6.00 Build 0)  -->
<svg version="1.1" id="Layer_1" xmlns="http://www.w3.org/2000/svg" xmlns:xlink="http://www.w3.org/1999/xlink" x="0px" y="0px"
	 viewBox="0 0 800 1221" style="enable-background:new 0 0 800 1221;" xml:space="preserve">
<style type="text/css">
	@import url('https://fonts.googleapis.com/css?family=Roboto:300,400,700');
	.st0{fill:none;stroke:#231815;stroke-miterlimit:10;}
	.st1{fill:#231815;}
	.st2{font-family:'Roboto';font-weight: 700;}
	.st3{font-size:26px;}
	.st4{fill:#FFFFFF;}
	.st5{font-family:'Roboto';font-weight: 400;}
	.st6{fill:none;}
	.st7{font-family:'Roboto';font-weight: 300;}
</style>
<image style="overflow:visible;" width="559" height="1192" xlink:href="F540B9D0CDBDECE1.png"  transform="matrix(1 0 0 1 145 11)">
</image>
<path class="st0" d="M597.4,703c0,0,3.2,85.9-71,130.6"/>
<g>
	<text transform="matrix(1 0 0 1 434.1816 351.312)" class="st1 st2 st3">Two strings</text>
</g>
<g>
	<text transform="matrix(1 0 0 1 394.2075 1039.5908)" class="st4 st5 st3">Body</text>
</g>
<rect x="437.5" y="370.5" class="st6" width="357.7" height="147.3"/>
<text transform="matrix(1 0 0 1 437.5439 389.9922)"><tspan x="0" y="0" class="st1 st7 st3">Each string has around 200 </tspan><tspan x="0" y="38.9" class="st1 st7 st3">horse hairs.</tspan></text>
<line class="st0" x1="410.3" y1="336.4" x2="351.6" y2="336.4"/>
<path class="st0" d="M203.6,425c0,0,0,70.3,63.5,99.8"/>
<g>
	<text transform="matrix(1 0 0 1 76.915 78.6733)" class="st1 st2 st3">Horse head</text>
</g>
<g>
	<text transform="matrix(1 0 0 1 378.6558 169.2837)" class="st1 st2 st3">Tuning peg</text>
</g>
<g>
	<text transform="matrix(1 0 0 1 501.1113 686.9707)" class="st1 st2 st3">Sound hole</text>
</g>
<g>
	<text transform="matrix(1 0 0 1 118.0752 626.8164)"><tspan x="0" y="0" class="st1 st2 st3">Horse</tspan><tspan x="25.1" y="36.9" class="st1 st2 st3">hair</tspan></text>
</g>
<g>
	<text transform="matrix(1 0 0 1 115.8853 407.7466)" class="st1 st2 st3">Bow string</text>
</g>
<path class="st0" d="M163,687.3c0,4.3,15.6,83.8,122,105"/>
</svg>
