<?xml version="1.0" encoding="utf-8"?>
<!-- Generator: Adobe Illustrator 24.3.2, SVG Export Plug-In . SVG Version: 6.00 Build 0)  -->
<svg version="1.1" id="Layer_1" xmlns="http://www.w3.org/2000/svg" xmlns:xlink="http://www.w3.org/1999/xlink" x="0px" y="0px"
	 viewBox="0 0 800 976.5" style="enable-background:new 0 0 800 976.5;" xml:space="preserve">
<style type="text/css">
	.st0{fill:none;}
	.st1{fill:#231815;}
	.st2{font-family:'Roboto-Regular';}
	.st3{font-size:25.3131px;}
	.st4{fill:none;stroke:#231815;stroke-miterlimit:10;}
	.st5{fill:none;stroke:#D5D5D5;stroke-width:5;stroke-miterlimit:10;}
	.st6{font-size:21.2156px;}
</style>
<image style="overflow:visible;" width="800" height="976" xlink:href="khoomei-diaphragm.gif"  transform="matrix(1.0006 0 0 1.0006 -0.2452 -0.143)">
</image>
<rect x="461.7" y="367.8" class="st0" width="270.9" height="267.3"/>
<text transform="matrix(1 0 0 1 461.6816 386.7963)"><tspan x="0" y="0" class="st1 st2 st3">During exhalation, the </tspan><tspan x="0" y="30.4" class="st1 st2 st3">diaphragm relaxes and </tspan><tspan x="0" y="60.8" class="st1 st2 st3">rises, the lung volume </tspan><tspan x="0" y="91.1" class="st1 st2 st3">decreases, and air is </tspan><tspan x="0" y="121.5" class="st1 st2 st3">expelled. This is where </tspan><tspan x="0" y="151.9" class="st1 st2 st3">the strength of singing </tspan><tspan x="0" y="182.3" class="st1 st2 st3">in Khoomei originates.</tspan></text>
<g>
	<g>
		<line class="st4" x1="449.7" y1="375.4" x2="291.5" y2="375.4"/>
		<g>
			<path class="st1" d="M291.5,371.6c-2.1,0-3.8,1.7-3.8,3.8s1.7,3.8,3.8,3.8c2.1,0,3.8-1.7,3.8-3.8S293.6,371.6,291.5,371.6z"/>
		</g>
	</g>
</g>
<g>
	<g>
		<text transform="matrix(1 0 0 1 257.5699 427.2249)" class="st5 st2 st6">Diaphragm</text>
	</g>
	<g>
		<text transform="matrix(1 0 0 1 130.6939 316.199)" class="st5 st2 st6">Lungs</text>
	</g>
	<g>
		<text transform="matrix(1 0 0 1 163.0098 207.8582)" class="st5 st2 st6">Trachea</text>
	</g>
	<g>
		<text transform="matrix(1 0 0 1 257.5699 427.2249)" class="st1 st2 st6">Diaphragm</text>
	</g>
	<g>
		<text transform="matrix(1 0 0 1 130.6939 316.199)" class="st1 st2 st6">Lungs</text>
	</g>
	<g>
		<text transform="matrix(1 0 0 1 163.0098 207.8582)" class="st1 st2 st6">Trachea</text>
	</g>
</g>
</svg>
