<?xml version="1.0" encoding="utf-8"?>
<!-- Generator: Adobe Illustrator 24.3.2, SVG Export Plug-In . SVG Version: 6.00 Build 0)  -->
<svg version="1.1" id="Layer_1" xmlns="http://www.w3.org/2000/svg" xmlns:xlink="http://www.w3.org/1999/xlink" x="0px" y="0px"
	 viewBox="0 0 800 756" style="enable-background:new 0 0 800 756;" xml:space="preserve">
<style type="text/css">
	@import url('https://fonts.googleapis.com/css?family=Roboto:300,400,700');
	.st0{fill:none;}
	.st1{fill:#231815;}
	.st2{font-family:'Roboto';font-weight: 300;}
	.st3{font-size:28px;}
	.st4{fill:none;stroke:#231815;stroke-width:2;stroke-miterlimit:10;}
	.st5{fill:none;stroke:#717071;stroke-miterlimit:10;}
	.st6{fill:none;stroke:#FFFFFF;stroke-width:3;stroke-miterlimit:10;}
	.st7{font-family:'Roboto';font-weight: 700;}
	.st8{font-size:26px;}
</style>
<image style="overflow:visible;" width="424" height="736" xlink:href="anim-dantian-longtune.gif"  transform="matrix(1 0 0 1 25 15)">
</image>
<g>
	<rect x="446" y="71" class="st0" width="328" height="386"/>
	<text transform="matrix(1 0 0 1 446 92)"><tspan x="0" y="0" class="st1 st2 st3">During long vocal </tspan><tspan x="0" y="33.6" class="st1 st2 st3">performances, the lungs </tspan><tspan x="0" y="67.2" class="st1 st2 st3">act as an &quot;energy </tspan><tspan x="0" y="100.8" class="st1 st2 st3">reservoir&quot;, needing to </tspan><tspan x="0" y="134.4" class="st1 st2 st3">store enough breath to </tspan><tspan x="0" y="168" class="st1 st2 st3">provide stable power for </tspan><tspan x="0" y="201.6" class="st1 st2 st3">extended singing through </tspan><tspan x="0" y="235.2" class="st1 st2 st3">controlled breathing and </tspan><tspan x="0" y="268.8" class="st1 st2 st3">pressing the Dan Tian.</tspan></text>
	<g>
		<g>
			<polyline class="st4" points="327.4,454 564,453.5 564,404.3 			"/>
			<g>
				<path class="st1" d="M327.4,461.5c-4.2,0-7.5-3.4-7.5-7.5c0-4.2,3.4-7.5,7.5-7.5c4.2,0,7.5,3.4,7.5,7.5
					C334.9,458.1,331.6,461.5,327.4,461.5z"/>
			</g>
		</g>
	</g>
</g>
<line class="st5" x1="4" y1="748.5" x2="797" y2="748.5"/>
<g>
	<g>
		<text transform="matrix(1 0 0 1 279.6484 615.4258)" class="st6 st7 st8">Dan Tian</text>
	</g>
	<g>
		<text transform="matrix(1 0 0 1 112.6387 429.875)" class="st6 st7 st8">Lungs</text>
	</g>
	<g>
		<text transform="matrix(1 0 0 1 145.877 313.8828)" class="st6 st7 st8">Trachea</text>
	</g>
	<g>
		<text transform="matrix(1 0 0 1 279.6484 615.4258)" class="st1 st7 st8">Dan Tian</text>
	</g>
	<g>
		<text transform="matrix(1 0 0 1 112.6387 429.875)" class="st1 st7 st8">Lungs</text>
	</g>
	<g>
		<text transform="matrix(1 0 0 1 145.877 313.8828)" class="st1 st7 st8">Trachea</text>
	</g>
</g>
</svg>
